<?xml version="1.0" standalone="no"?>
<!DOCTYPE svg PUBLIC "-//W3C//DTD SVG 20010904//EN"
 "http://www.w3.org/TR/2001/REC-SVG-20010904/DTD/svg10.dtd">
<svg version="1.0" xmlns="http://www.w3.org/2000/svg"
 width="1043.000000pt" height="1043.000000pt" viewBox="0 0 1043.000000 1043.000000"
 preserveAspectRatio="xMidYMid meet">
<metadata>
Created by potrace 1.11, written by Peter Selinger 2001-2013
</metadata>
<g transform="translate(0.000000,1043.000000) scale(0.100000,-0.100000)"
fill="#000000" stroke="none">
<path d="M5015 10419 c-508 -17 -1022 -113 -1515 -285 -442 -154 -920 -400
-1294 -668 -1158 -828 -1913 -2041 -2136 -3431 -71 -442 -84 -957 -34 -1395
173 -1539 1007 -2907 2294 -3764 219 -146 344 -219 569 -331 1228 -613 2657
-713 3971 -275 623 207 1183 521 1710 960 160 134 486 459 619 619 695 834
1093 1778 1207 2856 26 239 26 780 1 1020 -118 1113 -550 2104 -1282 2934
-134 152 -420 432 -565 552 -617 513 -1318 869 -2085 1059 -479 119 -934 165
-1460 149z m-2781 -2907 c88 -295 162 -543 166 -551 6 -11 9 -10 13 5 4 10 74
244 157 519 83 275 155 515 161 533 l11 32 274 0 274 0 0 -692 c0 -381 -3
-757 -7 -835 l-6 -143 -191 0 -191 0 7 477 c5 263 7 545 5 627 l-2 150 -180
-625 -180 -624 -142 -3 -141 -3 -11 33 c-5 18 -83 294 -172 613 -88 319 -165
587 -171 595 -6 10 -7 -212 -3 -612 l6 -628 -195 0 -196 0 0 683 c0 376 3 752
7 835 l6 152 271 0 271 0 159 -538z m3228 273 c-1 -140 0 -255 3 -255 4 0 23
13 43 29 87 69 188 101 320 101 289 -1 539 -200 597 -477 22 -101 19 -293 -4
-385 -69 -270 -278 -449 -554 -474 -147 -13 -297 36 -377 122 -22 24 -43 44
-45 44 -3 0 -5 -27 -5 -60 l0 -60 -175 0 -175 0 0 835 0 835 188 0 187 0 -3
-255z m1562 249 c13 -5 16 -23 16 -93 0 -47 -3 -110 -6 -138 l-7 -53 -183 0
-184 0 0 145 0 145 174 0 c96 0 181 -3 190 -6z m663 -141 c-4 -75 -7 -450 -7
-835 l0 -698 -185 0 -185 0 0 835 0 835 192 0 191 0 -6 -137z m-3307 -249
c168 -38 337 -171 413 -325 102 -209 102 -433 0 -639 -53 -106 -171 -224 -273
-273 -41 -20 -104 -44 -140 -54 -88 -23 -281 -22 -370 1 -186 49 -331 168
-413 336 -101 207 -102 412 -2 615 119 246 354 376 645 358 41 -3 104 -11 140
-19z m4370 -24 c200 -67 360 -226 421 -420 26 -85 44 -224 35 -283 l-7 -47
-471 0 -470 0 6 -32 c16 -82 106 -173 194 -198 20 -5 66 -10 102 -10 77 0 132
22 183 74 l36 36 191 0 c104 0 190 -3 190 -7 0 -15 -72 -132 -113 -184 -79
-99 -221 -189 -347 -220 -69 -17 -228 -17 -300 0 -77 18 -205 82 -271 135
-146 118 -239 317 -239 510 1 318 214 594 512 661 90 21 263 13 348 -15z
m-1720 -635 l0 -625 -185 0 -185 0 0 625 0 625 185 0 185 0 0 -625z m-4831
-961 c136 -31 274 -130 333 -240 30 -56 58 -158 58 -216 l0 -38 -210 0 c-193
0 -210 1 -210 18 -1 36 -40 102 -72 122 -66 40 -180 13 -213 -50 -19 -37 -19
-93 0 -129 19 -39 83 -77 261 -159 82 -38 170 -82 195 -97 191 -119 259 -227
259 -412 0 -252 -130 -424 -372 -491 -88 -24 -327 -23 -418 1 -239 64 -390
254 -390 491 l0 66 210 0 210 0 0 -23 c0 -13 7 -46 15 -73 45 -151 238 -176
304 -40 33 68 26 132 -21 176 -29 28 -140 84 -286 145 -197 83 -308 172 -366
295 -29 61 -31 72 -31 186 0 119 0 121 38 196 112 227 405 340 706 272z m1049
-224 l-3 -210 93 0 92 0 0 -140 0 -139 -92 -3 -93 -3 -3 -482 -2 -483 -185 0
-185 0 0 485 0 485 -90 0 -90 0 0 140 0 140 90 0 90 0 0 149 c0 81 3 176 6
210 l7 61 184 0 184 0 -3 -210z m1069 -185 c225 -42 415 -214 489 -441 25 -78
29 -104 29 -208 l0 -118 -472 1 c-400 2 -473 0 -473 -12 0 -29 63 -138 94
-162 60 -46 124 -67 200 -68 85 0 129 17 189 72 l44 41 192 0 191 0 -21 -42
c-64 -127 -183 -251 -297 -311 -108 -57 -171 -71 -302 -71 -100 1 -126 5 -200
29 -301 102 -491 403 -450 711 21 165 83 289 200 405 158 157 361 217 587 174z
m1526 -38 c50 -25 90 -53 116 -84 l41 -46 0 67 0 66 191 0 192 0 -7 -46 c-3
-26 -6 -309 -6 -630 l0 -584 -102 0 c-57 0 -140 3 -185 7 l-83 6 0 63 0 62
-58 -57 c-93 -94 -238 -133 -403 -111 -249 34 -421 180 -505 425 -22 65 -28
104 -32 205 -8 225 48 381 188 521 55 56 95 86 152 114 111 54 163 65 304 62
118 -3 124 -4 197 -40z m1660 13 c65 -25 127 -74 173 -137 21 -29 41 -53 44
-52 3 0 19 19 35 42 40 54 116 112 185 139 67 26 212 35 291 19 131 -27 244
-116 299 -233 43 -93 50 -183 50 -646 0 -374 -2 -414 -16 -408 -9 3 -93 6
-188 6 l-173 0 5 353 c6 452 -4 510 -95 563 -38 23 -52 26 -117 22 -62 -3 -79
-8 -111 -32 -20 -16 -47 -50 -59 -75 -20 -44 -21 -62 -24 -438 l-3 -393 -185
0 -184 0 0 370 c0 386 -5 445 -43 502 -72 106 -256 97 -322 -17 -38 -64 -45
-147 -45 -512 l0 -343 -185 0 -185 0 0 630 0 630 53 0 c30 0 109 -3 175 -7
l122 -6 0 -59 c0 -32 3 -58 8 -57 4 0 21 19 37 42 37 51 137 105 216 117 73
12 183 2 242 -20z m-5574 -2182 l-4 -573 23 -57 c26 -65 74 -112 129 -127 111
-31 212 11 257 109 20 44 21 60 24 628 l3 582 215 0 216 0 -7 -562 c-6 -578
-12 -673 -47 -768 -62 -165 -211 -296 -399 -347 -46 -13 -100 -18 -194 -17
-147 0 -243 21 -350 77 -76 40 -181 144 -222 223 -68 128 -67 114 -71 792 l-3
612 216 0 217 0 -3 -572z m2951 412 l0 -140 -185 0 -185 0 0 140 0 140 185 0
185 0 0 -140z m720 -70 l0 -210 90 0 90 0 0 -140 0 -140 -90 0 -90 0 0 -485 0
-485 -188 0 -188 0 4 485 4 485 -96 0 -96 0 0 140 0 139 93 3 92 3 3 208 2
207 185 0 185 0 0 -210z m-1652 -190 c128 -45 213 -128 254 -250 22 -63 23
-81 26 -542 l3 -478 -139 0 c-77 0 -160 3 -185 6 l-46 7 -3 401 -3 401 -25 45
c-35 62 -87 90 -169 90 -75 0 -140 -26 -171 -70 -44 -62 -50 -121 -50 -507 l0
-363 -185 0 -185 0 0 625 0 625 175 0 175 0 0 -67 0 -68 46 53 c47 54 114 95
181 112 64 16 230 5 301 -20z m854 -20 l78 0 0 -182 c0 -101 -3 -382 -7 -625
l-6 -443 -184 0 -183 0 0 368 c0 202 3 486 7 631 l6 264 105 -7 c58 -3 140 -6
184 -6z"/>
<path d="M5619 7277 c-151 -78 -212 -267 -137 -428 91 -197 338 -240 494 -85
70 71 98 144 92 246 -6 89 -32 151 -90 211 -60 62 -127 89 -220 89 -67 0 -84
-4 -139 -33z"/>
<path d="M4103 7302 c-78 -28 -136 -81 -175 -159 -28 -58 -33 -77 -33 -143 0
-66 5 -85 33 -143 117 -238 435 -231 545 12 33 72 30 198 -6 273 -67 138 -228
209 -364 160z"/>
<path d="M8477 7330 c-90 -23 -160 -80 -196 -160 l-20 -45 281 -3 c155 -1 283
0 286 2 10 10 -21 76 -54 114 -64 76 -197 117 -297 92z"/>
<path d="M4100 5305 c-30 -9 -73 -28 -95 -43 -38 -26 -105 -121 -105 -149 0
-10 59 -13 286 -13 l285 0 -6 23 c-42 138 -213 223 -365 182z"/>
<path d="M5600 5265 c-191 -53 -285 -278 -192 -460 61 -120 145 -170 282 -169
72 0 93 4 136 26 228 119 231 462 4 575 -80 40 -154 48 -230 28z"/>
</g>
</svg>
